PathFileType	4	(X/Y/Z)	c:/Users/goper/Files/vsCode/490R/osim_files/C08/C08_Slow_02.trc
DataRate	CameraRate	NumFrames	NumMarkers	Units                	OrigDataRate	OrigDataStartFrame	OrigNumFrames
250.00	250.00	4	36	mm	250.0	1990	2652
                Frame#	Time	LPSIS			LASIS			LTH1			LTH2			LTH3			LTH4			LLFE			LMFE			LSH1			LSH2			LSH3			LSH4			LLMAL			LMMAL			LCAL			LMTP5			LTOE			LMTP1			RPSIS			RASIS			RTH1			RTH2			RTH3			RTH4			RLFE			RMFE			RSH1			RSH2			RSH3			RSH4			RLMAL			RMMAL			RCAL			RMTP1			RTOE			RMTP5		
		X1	Y1	Z1	X2	Y2	Z2	X3	Y3	Z3	X4	Y4	Z4	X5	Y5	Z5	X6	Y6	Z6	X7	Y7	Z7	X8	Y8	Z8	X9	Y9	Z9	X10	Y10	Z10	X11	Y11	Z11	X12	Y12	Z12	X13	Y13	Z13	X14	Y14	Z14	X15	Y15	Z15	X16	Y16	Z16	X17	Y17	Z17	X18	Y18	Z18	X19	Y19	Z19	X20	Y20	Z20	X21	Y21	Z21	X22	Y22	Z22	X23	Y23	Z23	X24	Y24	Z24	X25	Y25	Z25	X26	Y26	Z26	X27	Y27	Z27	X28	Y28	Z28	X29	Y29	Z29	X30	Y30	Z30	X31	Y31	Z31	X32	Y32	Z32	X33	Y33	Z33	X34	Y34	Z34	X35	Y35	Z35	X36	Y36	Z36

1990	7.95600	-2871.57959	1039.23071	179.21526	-3053.46143	1000.42395	10.90377	-3048.06250	735.51318	318.40625	-3070.11694	663.01099	302.94574	-3084.99219	590.02136	291.58142	-3143.81519	687.15039	282.39691	-3093.87402	542.09363	282.00409	-3093.42432	532.85156	154.46104	-3059.17041	411.66580	298.31564	-3069.27148	365.06207	296.96402	-3115.06396	416.62949	288.86670	-3119.97119	371.59875	287.67642	-3086.36255	94.06944	233.56186	-3107.07227	107.37163	145.58586	-3026.69434	70.81058	175.40190	-3209.85181	46.03407	255.88171	-3265.01587	69.29079	197.11066	-3230.51465	50.65470	145.62772	-2862.99414	1034.29224	119.83550	-3088.42285	1011.09766	243.44322	-2988.03369	728.95703	-46.09842	-2996.93970	650.13770	-36.62980	-3005.64844	569.68945	-32.78148	-3074.69727	659.34265	-20.28479	-3002.09351	504.49283	-25.83917	0.00000	0.00000	0.00000	-2918.65039	472.91647	-35.53081	-2891.57031	437.32040	-41.26487	0.00000	0.00000	0.00000	-2932.82202	400.52206	-33.33288	-2676.59692	238.12231	24.70215	-2703.33008	212.77419	110.57544	-2630.15747	270.00406	99.13341	-2719.44141	75.08569	92.43941	-2742.70508	77.88528	38.48428	-2690.60303	104.61482	-18.12369
1991	7.96000	-2875.83716	1039.43164	179.99855	-3056.86475	1000.30829	10.82258	-3051.06226	735.68323	318.71658	-3072.79541	663.16473	303.25845	-3086.95703	590.13123	291.68790	-3146.66382	686.89661	282.73492	-3095.83984	542.04456	282.30240	-3095.41724	533.08112	155.26382	-3060.53027	411.90433	298.36081	-3068.99707	364.68222	296.66138	-3116.42627	416.30496	289.29510	-3121.25073	371.56540	287.95657	-3086.48193	94.10452	233.52194	-3107.16260	107.35184	145.48851	-3026.72974	70.81007	175.37962	-3209.86719	45.97619	255.88820	-3265.12476	69.00673	197.04385	-3230.57080	50.49309	145.56151	-2865.95508	1034.50854	120.35223	-3092.54932	1011.39062	243.74838	-2995.62476	729.84515	-46.32508	-3003.53076	650.47070	-36.44042	-3013.04907	570.07050	-32.69416	-3081.32373	660.33514	-20.42012	-3010.21606	505.12741	-25.86364	0.00000	0.00000	0.00000	0.00000	0.00000	0.00000	-2900.28003	438.44476	-41.30312	0.00000	0.00000	0.00000	-2938.69214	401.83041	-33.60244	-2683.80151	240.46158	25.75731	-2710.34009	215.06944	110.67225	-2637.15137	272.47195	99.88183	-2726.03955	77.32261	91.58829	-2748.87866	80.03777	38.00891	-2696.93408	107.65459	-18.59677
1992	7.96400	-2880.08032	1039.56995	180.76920	-3060.33374	1000.24164	10.70612	-3054.00513	735.86365	319.03522	-3075.39624	663.30634	303.58624	-3089.11230	590.13727	291.93600	-3149.39893	686.63971	283.09595	-3097.86572	542.07135	282.64062	-3098.08447	533.17773	155.03404	-3061.79834	412.13705	298.46323	-3071.67725	365.49973	297.37289	-3117.74048	416.25351	289.58319	-3122.46191	371.55347	288.30222	-3086.54175	94.08338	233.52588	-3107.23389	107.33210	145.48776	-3026.78955	70.94062	175.51414	-3209.86987	45.93044	255.90395	-3265.20996	68.70938	196.99715	-3230.61890	50.35160	145.50473	-2869.99292	1034.57385	121.13738	-3096.70337	1011.63031	244.09111	-3002.29761	731.07153	-45.85309	-3010.07812	650.97247	-36.26822	-3020.34888	570.49915	-32.56137	-3087.90967	661.40436	-20.52093	-3018.37183	505.94681	-25.94961	0.00000	0.00000	0.00000	0.00000	0.00000	0.00000	-2908.22192	439.80582	-41.14118	0.00000	0.00000	0.00000	-2948.35791	402.78214	-33.19706	-2690.86353	243.27773	26.01300	-2717.42969	217.16110	110.77364	-2644.72510	274.67267	100.43163	-2732.92236	79.45804	90.77042	-2756.17773	82.26073	36.81309	-2703.62109	110.61895	-19.10209
1993	7.96800	-2884.25146	1039.84558	181.57980	-3063.73853	1000.23975	10.54892	-3056.89990	736.07965	319.35870	-3077.94409	663.46967	303.89703	-3091.29834	589.82050	291.43533	-3152.09985	686.40460	283.45395	-3099.68799	542.04230	282.96701	-3100.34229	533.19012	155.09741	-3063.03125	412.45892	298.66553	-3072.67676	365.68771	297.65204	-3119.02026	416.22272	289.94412	-3123.49976	371.50629	288.69254	-3086.64307	94.10387	233.53874	-3107.31641	107.35540	145.47940	-3026.77979	70.97436	175.53993	-3209.89307	45.87086	255.92110	-3265.29980	68.47822	196.96118	-3230.68188	50.27534	145.45926	-2874.03369	1034.70605	121.99324	-3100.80737	1011.88434	244.44695	-3007.41919	730.74176	-45.91010	-3016.60303	651.49579	-36.03692	-3027.77002	571.10699	-32.40322	-3094.34814	662.46942	-20.64842	-3026.35889	506.74503	-25.98011	0.00000	0.00000	0.00000	-2945.16113	476.71716	-35.40941	-2916.26147	441.36209	-40.91446	0.00000	0.00000	0.00000	-2956.19263	404.05865	-33.14492	-2697.47070	246.02975	25.76400	-2724.72974	219.13457	110.92035	-2651.62671	276.84625	101.19592	-2740.01514	81.48276	89.98733	-2764.69580	85.12114	35.87896	-2710.65771	113.47976	-19.57002
